<?xml version="1.0" encoding="UTF-8"?>
<svg xmlns="http://www.w3.org/2000/svg" xmlns:xlink="http://www.w3.org/1999/xlink" width="38pt" height="38pt" viewBox="0 0 38 38" version="1.1">
<g id="surface1">
<path style=" stroke:none;fill-rule:nonzero;fill:rgb(88.627451%,29.803922%,29.411765%);fill-opacity:1;" d="M 38 19 C 38 29.492188 29.492188 38 19 38 C 8.507812 38 0 29.492188 0 19 C 0 8.507812 8.507812 0 19 0 C 29.492188 0 38 8.507812 38 19 Z M 38 19 "/>
<path style=" stroke:none;fill-rule:nonzero;fill:rgb(81.960784%,25.098039%,24.705882%);fill-opacity:1;" d="M 38 19 C 38 29.449219 29.449219 38 19 38 C 12.945312 38 7.601562 35.269531 4.15625 30.875 C 7.363281 33.488281 11.519531 35.03125 16.03125 35.03125 C 26.480469 35.03125 35.03125 26.480469 35.03125 16.03125 C 35.03125 11.519531 33.488281 7.363281 30.875 4.15625 C 35.269531 7.601562 38 12.945312 38 19 Z M 38 19 "/>
<path style=" stroke:none;fill-rule:nonzero;fill:rgb(100%,100%,100%);fill-opacity:1;" d="M 27.667969 27.667969 C 26.957031 28.382812 25.769531 28.382812 25.054688 27.667969 L 19 21.613281 L 12.945312 27.667969 C 12.230469 28.382812 11.042969 28.382812 10.332031 27.667969 C 9.617188 26.957031 9.617188 25.769531 10.332031 25.054688 L 16.386719 19 L 10.332031 12.945312 C 9.617188 12.230469 9.617188 11.042969 10.332031 10.332031 C 11.042969 9.617188 12.230469 9.617188 12.945312 10.332031 L 19 16.386719 L 25.054688 10.332031 C 25.769531 9.617188 26.957031 9.617188 27.667969 10.332031 C 28.382812 11.042969 28.382812 12.230469 27.667969 12.945312 L 21.613281 19 L 27.667969 25.054688 C 28.382812 25.769531 28.382812 26.957031 27.667969 27.667969 Z M 27.667969 27.667969 "/>
</g>
</svg>
